<?xml version="1.0" encoding="UTF-8" standalone="no"?>
<!-- Created with Inkscape (http://www.inkscape.org/) -->

<svg
   xmlns:dc="http://purl.org/dc/elements/1.1/"
   xmlns:cc="http://creativecommons.org/ns#"
   xmlns:rdf="http://www.w3.org/1999/02/22-rdf-syntax-ns#"
   xmlns:svg="http://www.w3.org/2000/svg"
   xmlns="http://www.w3.org/2000/svg"
   xmlns:sodipodi="http://sodipodi.sourceforge.net/DTD/sodipodi-0.dtd"
   xmlns:inkscape="http://www.inkscape.org/namespaces/inkscape"
   width="98"
   height="30.5"
   id="svg2"
   version="1.1"
   inkscape:version="0.48.5 r10040"
   sodipodi:docname="logo.svg">
  <defs
     id="defs4" />
  <sodipodi:namedview
     id="base"
     pagecolor="#ffffff"
     bordercolor="#666666"
     borderopacity="1.0"
     inkscape:pageopacity="0.0"
     inkscape:pageshadow="2"
     inkscape:zoom="7.9195959"
     inkscape:cx="58.305973"
     inkscape:cy="31.93533"
     inkscape:document-units="px"
     inkscape:current-layer="layer1"
     showgrid="false"
     inkscape:window-width="1360"
     inkscape:window-height="705"
     inkscape:window-x="-8"
     inkscape:window-y="-8"
     inkscape:window-maximized="1" />
  <metadata
     id="metadata7">
    <rdf:RDF>
      <cc:Work
         rdf:about="">
        <dc:format>image/svg+xml</dc:format>
        <dc:type
           rdf:resource="http://purl.org/dc/dcmitype/StillImage" />
        <dc:title />
      </cc:Work>
    </rdf:RDF>
  </metadata>
  <g
     inkscape:label="Layer 1"
     inkscape:groupmode="layer"
     id="layer1"
     transform="translate(0,-1021.8622)">
    <rect
       style="color:#000000;fill:#afc6e9;stroke:none;stroke-width:0.40000001;marker:none;visibility:visible;display:inline;overflow:visible;enable-background:accumulate"
       id="rect2989"
       width="97.984795"
       height="30.430847"
       x="0.025459832"
       y="1021.9236"
       ry="1.5099275"
       rx="1.2626907" />
    <rect
       style="color:#000000;fill:#ffffff;stroke:none;stroke-width:0.40000001;marker:none;visibility:visible;display:inline;overflow:visible;enable-background:accumulate"
       id="rect2989-1"
       width="94.526375"
       height="24.243662"
       x="1.7546712"
       y="1025.0172"
       ry="1.2029297"
       rx="1.2181233" />
    <g
       transform="matrix(0.80634625,0,0,0.85768712,4.5688206,235.08649)"
       style="font-size:29.56541443px;font-style:normal;font-variant:normal;font-weight:normal;font-stretch:normal;text-align:start;line-height:125%;letter-spacing:0px;word-spacing:0px;writing-mode:lr-tb;text-anchor:start;fill:#000000;fill-opacity:1;stroke:none;font-family:Eras Bold ITC;-inkscape-font-specification:Eras Bold ITC"
       id="text2985">
      <path
         d="m 3.8970187,945.04828 0.4042147,-6.95827 0.2309798,-5.44246 0.028872,-2.33867 c 1.0586544,0.0193 1.9921968,0.0289 2.8006301,0.0289 0.9142894,2e-5 1.8045231,-0.01 2.6707047,-0.0289 l -0.1010544,1.92002 c 0.2983414,-0.38495 0.5509754,-0.6809 0.7579024,-0.88783 0.206912,-0.2069 0.459545,-0.4042 0.757903,-0.59188 0.29834,-0.18766 0.606312,-0.33684 0.923919,-0.44753 0.317587,-0.11066 0.673681,-0.19968 1.068282,-0.26707 0.394579,-0.0674 0.808417,-0.10104 1.241516,-0.10105 0.49082,10e-6 0.943155,0.0409 1.357006,0.12271 0.413825,0.0818 0.769919,0.18528 1.068282,0.31038 0.298334,0.12512 0.558186,0.26949 0.779557,0.43308 0.22134,0.16363 0.416229,0.34889 0.584667,0.5558 0.168407,0.20693 0.363296,0.50769 0.584668,0.90226 0.423446,-0.61593 0.870969,-1.0827 1.34257,-1.40031 0.471566,-0.31759 1.008112,-0.55097 1.609641,-0.70016 0.60149,-0.14916 1.219841,-0.22375 1.855056,-0.22376 0.83728,10e-6 1.62646,0.12032 2.367543,0.3609 0.741036,0.24062 1.349763,0.65687 1.826184,1.24874 0.47637,0.5919 0.714568,1.35942 0.714594,2.30258 -2.6e-5,0.44272 -0.0313,1.1116 -0.09384,2.00664 -0.06258,0.89505 -0.1492,2.43251 -0.259852,4.61237 -0.110703,2.17988 -0.170854,3.70771 -0.180453,4.58351 -0.885447,-0.0192 -1.741996,-0.0289 -2.56965,-0.0289 -1.010559,0 -2.069215,0.01 -3.175972,0.0289 0.09622,-1.22227 0.194869,-2.75491 0.295942,-4.59794 0.101034,-1.84302 0.151561,-3.12063 0.151581,-3.83282 -2e-5,-0.61594 -0.0722,-1.07549 -0.216544,-1.37866 -0.144382,-0.30316 -0.329647,-0.51007 -0.555795,-0.62076 -0.226187,-0.11067 -0.474009,-0.16601 -0.743466,-0.16602 -0.288743,10e-6 -0.538971,0.0529 -0.750684,0.1588 -0.230998,0.1155 -0.433105,0.29355 -0.606322,0.53414 -0.230997,0.31761 -0.418668,0.71701 -0.563014,1.19821 -0.115506,0.37535 -0.206936,0.94798 -0.274288,1.71791 -0.06739,0.78919 -0.120319,1.8286 -0.158799,3.11823 l -0.11549,3.86891 c -1.0298,-0.0192 -1.95853,-0.0289 -2.786193,-0.0289 -0.846939,0 -1.843038,0.01 -2.988302,0.0289 0.08661,-0.85655 0.187661,-2.29536 0.303161,-4.31644 0.115479,-2.02106 0.173224,-3.37326 0.173235,-4.05658 -1.1e-5,-0.57744 -0.05776,-1.01053 -0.173235,-1.29926 -0.1155,-0.28872 -0.276705,-0.51969 -0.483614,-0.69294 -0.206929,-0.17322 -0.483623,-0.25984 -0.830083,-0.25985 -0.375352,10e-6 -0.702573,0.11069 -0.981664,0.33203 -0.279109,0.22137 -0.517307,0.53896 -0.714594,0.95279 -0.197303,0.41385 -0.336853,0.98408 -0.418651,1.7107 -0.081813,0.72663 -0.1564003,1.83581 -0.2237621,3.32755 -0.067376,1.49175 -0.1106849,2.92575 -0.1299261,4.302 -1.1645291,-0.0192 -2.1076957,-0.0289 -2.8295026,-0.0289 -0.7988086,0 -1.7900959,0.01 -2.9738649,0.0289 z"
         id="path3774"
         inkscape:connector-curvature="0" />
      <path
         d="m 30.199844,951.64564 c -0.298348,-2.30018 -0.500455,-3.72936 -0.606322,-4.28756 0.606322,0.28872 1.142869,0.48601 1.609641,0.59188 0.46677,0.10587 0.868578,0.1588 1.205426,0.1588 0.356091,0 0.69053,-0.0481 1.003318,-0.14436 0.312782,-0.0962 0.560604,-0.21414 0.743466,-0.35369 0.182855,-0.13955 0.382556,-0.35369 0.599104,-0.64241 0.216539,-0.28873 0.377743,-0.53655 0.483614,-0.74347 0.105861,-0.20692 0.211726,-0.50286 0.317597,-0.88783 l -2.714012,-8.21422 -2.324234,-6.8139 c 1.433997,0.0193 2.439721,0.0289 3.017173,0.0289 0.673687,2e-5 1.592793,-0.01 2.757322,-0.0289 0.182852,0.74107 0.522103,2.02109 1.017754,3.84004 0.495637,1.81897 0.854136,3.24335 1.0755,4.27313 0.125106,0.56783 0.245408,1.28964 0.360906,2.16543 l 0.303161,-1.1549 c 0.09623,-0.30796 0.20691,-0.65925 0.332033,-1.05384 0.125105,-0.39459 0.283904,-0.86617 0.476396,-1.41475 l 0.938356,-2.6274 1.559113,-4.02771 c 1.203007,0.0193 2.112489,0.0289 2.728449,0.0289 0.538938,2e-5 1.501352,-0.01 2.887248,-0.0289 l -2.786194,6.2942 -5.038247,11.67892 c -0.327231,0.65443 -0.640016,1.17414 -0.938355,1.55911 -0.27911,0.34646 -0.582271,0.64962 -0.909483,0.90948 -0.307981,0.2406 -0.640014,0.44271 -0.996101,0.60632 -0.481214,0.22135 -1.010543,0.39459 -1.587986,0.51971 -0.635199,0.13473 -1.280017,0.2021 -1.934456,0.20211 -0.298352,-10e-6 -0.692942,-0.0217 -1.183771,-0.065 -0.490834,-0.0433 -0.88783,-0.0866 -1.19099,-0.12992 -0.303162,-0.0433 -0.70497,-0.12272 -1.205426,-0.2382 z"
         id="path3776"
         inkscape:connector-curvature="0" />
      <path
         d="m 49.05357,945.04828 c 0.240602,-2.48303 0.416243,-4.56185 0.526923,-6.23646 0.110675,-1.67459 0.221353,-3.90018 0.332033,-6.67676 0.110676,-2.77655 0.166014,-4.61717 0.166017,-5.52186 l -0.01444,-1.27039 c 2.271296,0.0193 5.018991,0.0289 8.243091,0.0289 2.973852,2e-5 5.596432,-0.01 7.86775,-0.0289 l -0.02887,0.4764 c -0.0096,0.11551 -0.0337,0.53416 -0.07218,1.25595 l -0.08662,1.57355 c -0.01927,0.33686 -0.02889,0.67852 -0.02887,1.02498 -1.857479,-0.077 -3.416591,-0.11548 -4.677341,-0.11549 -1.385891,10e-6 -2.321839,0.002 -2.807848,0.007 -0.48603,0.005 -1.243932,0.0265 -2.273707,0.065 l -0.173235,3.3059 c 1.135641,0.0289 2.458961,0.0433 3.969965,0.0433 0.53894,2e-5 1.972938,-0.0337 4.301999,-0.10105 -0.09626,1.2319 -0.187688,2.69959 -0.274289,4.40305 -1.664994,-0.0192 -2.945006,-0.0289 -3.840039,-0.0289 -1.328145,10e-6 -2.815076,0.0337 -4.460797,0.10105 l -0.173235,3.50801 1.660167,0 c 0.490822,0 1.50617,-0.0144 3.046046,-0.0433 l 2.988301,-0.0722 c 0.442696,-0.01 1.183755,-0.0481 2.223181,-0.11549 -0.115508,1.42438 -0.211749,2.89687 -0.288725,4.41749 -2.34831,-0.0192 -4.922769,-0.0289 -7.723387,-0.0289 l -6.351944,0.0144 z"
         style="fill:#000080"
         id="path3778"
         inkscape:connector-curvature="0" />
      <path
         d="m 68.556926,945.04828 c 0.182857,-1.69385 0.327219,-3.21928 0.433087,-4.57629 0.105863,-1.357 0.197293,-2.93055 0.274288,-4.72065 0.07699,-1.79008 0.134736,-3.67882 0.173235,-5.66622 0.03849,-1.98737 0.05774,-3.56814 0.05775,-4.74231 1.203016,0.0289 2.175055,0.0433 2.91612,0.0433 0.769927,2e-5 1.708281,-0.0216 2.815066,-0.065 1.106769,-0.0433 2.184674,-0.0649 3.233717,-0.065 1.23188,2e-5 2.329033,0.0481 3.291463,0.14436 0.721796,0.0674 1.378644,0.20694 1.970546,0.41865 0.591869,0.21175 1.089918,0.4692 1.494151,0.77234 0.404196,0.30318 0.741041,0.64243 1.010536,1.01775 0.269457,0.37536 0.478783,0.81567 0.627977,1.32092 0.149154,0.50528 0.223741,1.04664 0.223761,1.62408 -2e-5,0.64483 -0.08183,1.24874 -0.245416,1.81174 -0.16363,0.56303 -0.421076,1.09236 -0.772338,1.58799 -0.351301,0.49566 -0.794012,0.92393 -1.328134,1.28483 -0.534158,0.36091 -1.282436,0.72903 -2.244835,1.10437 l 0.750684,1.8334 c 0.211715,0.51009 0.437883,1.02979 0.678503,1.55911 l 1.934456,4.22982 c 0.0866,0.18286 0.240585,0.54377 0.46196,1.08272 -1.588004,-0.0192 -2.656285,-0.0289 -3.204845,-0.0289 -0.692955,0 -1.828604,0.01 -3.406952,0.0289 -0.153999,-0.50046 -0.433099,-1.42919 -0.837302,-2.7862 -0.163622,-0.56782 -0.303172,-1.00572 -0.418651,-1.31369 -0.230991,-0.68331 -0.572648,-1.64092 -1.024973,-2.87281 l -1.486932,-4.08546 c 0.519695,0.0962 1.029775,0.14437 1.530241,0.14436 0.702553,10e-6 1.340152,-0.10585 1.912802,-0.31759 0.572624,-0.21172 1.005711,-0.53895 1.299261,-0.98167 0.293523,-0.4427 0.440291,-0.90947 0.440305,-1.40031 -1.4e-5,-0.41383 -0.110692,-0.77714 -0.332033,-1.08994 -0.221369,-0.31277 -0.570245,-0.54615 -1.046628,-0.70016 -0.476407,-0.15397 -1.210249,-0.23096 -2.201526,-0.23098 -0.336855,2e-5 -0.685731,0.007 -1.046627,0.0217 -0.360915,0.0145 -0.781971,0.0265 -1.263171,0.0361 -0.125122,1.97296 -0.235799,4.379 -0.332033,7.21812 -0.09625,2.83913 -0.158806,5.62532 -0.187671,8.35858 -1.607241,-0.0192 -2.651461,-0.0289 -3.132664,-0.0289 -0.558205,0 -1.563928,0.01 -3.017173,0.0289 z"
         style="fill:#000080"
         id="path3780"
         inkscape:connector-curvature="0" />
      <path
         d="m 89.373981,945.04828 0.288725,-3.69568 0.375342,-7.21812 0.158799,-5.11042 c 0.0096,-0.54857 0.01443,-1.09714 0.01444,-1.64574 -2e-6,-0.41382 -0.0048,-1.09232 -0.01444,-2.03551 1.270385,0.0289 2.290545,0.0433 3.060482,0.0433 0.741054,2e-5 1.756402,-0.0216 3.046046,-0.065 1.289628,-0.0433 2.381969,-0.0649 3.277026,-0.065 1.289629,2e-5 2.244819,0.0818 2.865589,0.24541 0.62075,0.16363 1.18135,0.42108 1.68183,0.77234 0.50044,0.3513 0.91427,0.76273 1.24151,1.2343 0.32721,0.4716 0.57262,1.00815 0.73625,1.60964 0.16359,0.60153 0.2454,1.21507 0.24542,1.84062 -2e-5,1.28965 -0.31281,2.46861 -0.93836,3.53688 -0.62559,1.06829 -1.5062,1.86709 -2.64183,2.39641 -1.13566,0.52934 -2.41086,0.79401 -3.825603,0.794 -0.519715,10e-6 -1.121225,-0.0577 -1.80453,-0.17324 -0.077,-0.4427 -0.221365,-1.10195 -0.433087,-1.97776 -0.21174,-0.87579 -0.384975,-1.52542 -0.519705,-1.94889 0.423455,0.0866 0.866165,0.12993 1.328134,0.12992 0.97203,10e-6 1.696247,-0.23337 2.172654,-0.70016 0.476387,-0.46675 0.714577,-1.03699 0.714597,-1.71069 -2e-5,-0.32721 -0.053,-0.61834 -0.1588,-0.87339 -0.10588,-0.25503 -0.274303,-0.46435 -0.50527,-0.62798 -0.230992,-0.16359 -0.486032,-0.26946 -0.765121,-0.3176 -0.279111,-0.0481 -0.596708,-0.0722 -0.952792,-0.0722 -0.346479,2e-5 -0.707385,0.01 -1.082717,0.0289 l -1.212644,0.0866 c -0.125122,1.85748 -0.221364,3.92186 -0.288725,6.19315 -0.125122,4.13839 -0.187679,6.62142 -0.187671,7.4491 l 0,1.87671 -2.872811,-0.0289 c -0.404219,0 -1.405131,0.01 -3.002738,0.0289 z"
         style="fill:#000080"
         id="path3782"
         inkscape:connector-curvature="0" />
    </g>
  </g>
</svg>
